<svg width="35" height="35" viewBox="0 0 35 35" fill="none" xmlns="http://www.w3.org/2000/svg">
<path d="M33.9746 13.6719H26.7969V1.02539C26.7969 0.459102 26.3378 0 25.7715 0H9.22852C8.66223 0 8.20312 0.459102 8.20312 1.02539V13.6719H1.02539C0.459102 13.6719 0 14.131 0 14.6973V33.9746C0 34.5409 0.459102 35 1.02539 35H33.9746C34.5409 35 35 34.5409 35 33.9746V14.6973C35 14.131 34.5409 13.6719 33.9746 13.6719ZM2.05078 15.7227H8.20312V32.9492H2.05078V15.7227ZM10.2539 2.05078H24.7461V32.9492H22.627V29.3945C22.627 28.8282 22.1679 28.3691 21.6016 28.3691H13.3984C12.8321 28.3691 12.373 28.8282 12.373 29.3945V32.9492H10.2539V2.05078ZM14.4238 30.4199H16.4746V32.9492H14.4238V30.4199ZM18.5254 32.9492V30.4199H20.5762V32.9492H18.5254ZM32.9492 32.9492H26.7969V15.7227H32.9492V32.9492Z" fill="#4A5568"/>
<path d="M13.3984 20.166C13.9647 20.166 14.4238 19.7069 14.4238 19.1406V17.0898C14.4238 16.5236 13.9647 16.0645 13.3984 16.0645C12.8321 16.0645 12.373 16.5236 12.373 17.0898V19.1406C12.373 19.7069 12.8321 20.166 13.3984 20.166Z" fill="#4A5568"/>
<path d="M17.5 16.0645C16.9337 16.0645 16.4746 16.5236 16.4746 17.0898V19.1406C16.4746 19.7069 16.9337 20.166 17.5 20.166C18.0663 20.166 18.5254 19.7069 18.5254 19.1406V17.0898C18.5254 16.5236 18.0663 16.0645 17.5 16.0645Z" fill="#4A5568"/>
<path d="M20.5762 17.0898V19.1406C20.5762 19.7069 21.0353 20.166 21.6016 20.166C22.1679 20.166 22.627 19.7069 22.627 19.1406V17.0898C22.627 16.5236 22.1679 16.0645 21.6016 16.0645C21.0353 16.0645 20.5762 16.5236 20.5762 17.0898Z" fill="#4A5568"/>
<path d="M13.3984 26.3184C13.9647 26.3184 14.4238 25.8593 14.4238 25.293V23.2422C14.4238 22.6759 13.9647 22.2168 13.3984 22.2168C12.8321 22.2168 12.373 22.6759 12.373 23.2422V25.293C12.373 25.8593 12.8321 26.3184 13.3984 26.3184Z" fill="#4A5568"/>
<path d="M17.5 22.2168C16.9337 22.2168 16.4746 22.6759 16.4746 23.2422V25.293C16.4746 25.8593 16.9337 26.3184 17.5 26.3184C18.0663 26.3184 18.5254 25.8593 18.5254 25.293V23.2422C18.5254 22.6759 18.0663 22.2168 17.5 22.2168Z" fill="#4A5568"/>
<path d="M21.6016 22.2168C21.0353 22.2168 20.5762 22.6759 20.5762 23.2422V25.293C20.5762 25.8593 21.0353 26.3184 21.6016 26.3184C22.1679 26.3184 22.627 25.8593 22.627 25.293V23.2422C22.627 22.6759 22.1679 22.2168 21.6016 22.2168Z" fill="#4A5568"/>
<path d="M13.3984 7.86133C13.9647 7.86133 14.4238 7.40223 14.4238 6.83594V4.78516C14.4238 4.21887 13.9647 3.75977 13.3984 3.75977C12.8321 3.75977 12.373 4.21887 12.373 4.78516V6.83594C12.373 7.40223 12.8321 7.86133 13.3984 7.86133Z" fill="#4A5568"/>
<path d="M17.5 3.75977C16.9337 3.75977 16.4746 4.21887 16.4746 4.78516V6.83594C16.4746 7.40223 16.9337 7.86133 17.5 7.86133C18.0663 7.86133 18.5254 7.40223 18.5254 6.83594V4.78516C18.5254 4.21887 18.0663 3.75977 17.5 3.75977Z" fill="#4A5568"/>
<path d="M20.5762 4.78516V6.83594C20.5762 7.40223 21.0353 7.86133 21.6016 7.86133C22.1679 7.86133 22.627 7.40223 22.627 6.83594V4.78516C22.627 4.21887 22.1679 3.75977 21.6016 3.75977C21.0353 3.75977 20.5762 4.21887 20.5762 4.78516Z" fill="#4A5568"/>
<path d="M13.3984 14.0137C13.9647 14.0137 14.4238 13.5546 14.4238 12.9883V10.9375C14.4238 10.3712 13.9647 9.91211 13.3984 9.91211C12.8321 9.91211 12.373 10.3712 12.373 10.9375V12.9883C12.373 13.5546 12.8321 14.0137 13.3984 14.0137Z" fill="#4A5568"/>
<path d="M17.5 9.91211C16.9337 9.91211 16.4746 10.3712 16.4746 10.9375V12.9883C16.4746 13.5546 16.9337 14.0137 17.5 14.0137C18.0663 14.0137 18.5254 13.5546 18.5254 12.9883V10.9375C18.5254 10.3712 18.0663 9.91211 17.5 9.91211Z" fill="#4A5568"/>
<path d="M21.6016 9.91211C21.0353 9.91211 20.5762 10.3712 20.5762 10.9375V12.9883C20.5762 13.5546 21.0353 14.0137 21.6016 14.0137C22.1679 14.0137 22.627 13.5546 22.627 12.9883V10.9375C22.627 10.3712 22.1679 9.91211 21.6016 9.91211Z" fill="#4A5568"/>
<path d="M29.873 21.875C30.4393 21.875 30.8984 21.4159 30.8984 20.8496V18.7988C30.8984 18.2325 30.4393 17.7734 29.873 17.7734C29.3068 17.7734 28.8477 18.2325 28.8477 18.7988V20.8496C28.8477 21.4159 29.3068 21.875 29.873 21.875Z" fill="#4A5568"/>
<path d="M29.873 28.0273C30.4393 28.0273 30.8984 27.5682 30.8984 27.002V24.9512C30.8984 24.3849 30.4393 23.9258 29.873 23.9258C29.3068 23.9258 28.8477 24.3849 28.8477 24.9512V27.002C28.8477 27.5682 29.3068 28.0273 29.873 28.0273Z" fill="#4A5568"/>
<path d="M5.12695 17.7734C4.56066 17.7734 4.10156 18.2325 4.10156 18.7988V20.8496C4.10156 21.4159 4.56066 21.875 5.12695 21.875C5.69324 21.875 6.15234 21.4159 6.15234 20.8496V18.7988C6.15234 18.2325 5.69324 17.7734 5.12695 17.7734Z" fill="#4A5568"/>
<path d="M5.12695 23.9258C4.56066 23.9258 4.10156 24.3849 4.10156 24.9512V27.002C4.10156 27.5682 4.56066 28.0273 5.12695 28.0273C5.69324 28.0273 6.15234 27.5682 6.15234 27.002V24.9512C6.15234 24.3849 5.69324 23.9258 5.12695 23.9258Z" fill="#4A5568"/>
</svg>

